PathFileType	4	(X/Y/Z)	OpenSim_Sub06_CSBaseline_Magnet.trc
DataRate	CameraRate	NumFrames	NumMarkers	Units	OrigDataRate	OrigDataStartFrame	OrigNumFrames
100	100	13	8	m	100	2124	8492
Frame#	Time	torso_imu_offset_imu	pelvis_imu_offset_imu	tibia_r_imu_offset_imu	femur_r_imu_offset_imu	tibia_l_imu_offset_imu	femur_l_imu_offset_imu	toes_r_imu_offset_imu	toes_l_imu_offset_imu
				X1	Y1	Z1	X2	Y2	Z2	X3	Y3	Z3	X4	Y4	Z4	X5	Y5	Z5	X6	Y6	Z6	X7	Y7	Z7	X8		Y8	Z8	

2124	21.23000000	-0.95441240	-0.19893968	0.02444092	-0.53001031	0.26117658	-0.73266912	-0.55464377	-0.60339949	-0.18715511	-0.79075552	-0.24486929	0.04956537	-0.25313890	0.80238420	0.09832633	-0.46042311	0.29017306	0.40649040	-0.59995747	-0.25026801	-0.53017992	-0.80547723	0.15255456	0.17441637
2125	21.24000000	-0.95237843	-0.19496627	0.02386794	-0.53573594	0.25037351	-0.73885595	-0.56291290	-0.59937767	-0.18551529	-0.78622457	-0.25522593	0.05675652	-0.24880859	0.80579647	0.08220118	-0.46883976	0.27303213	0.39915329	-0.60294975	-0.25344452	-0.53846796	-0.78811343	0.16806079	0.22064819
2126	21.25000000	-0.95444701	-0.19450960	0.02557311	-0.53414085	0.24838936	-0.74678827	-0.55553015	-0.60074663	-0.18245079	-0.78423712	-0.26135326	0.05535412	-0.23422281	0.81502443	0.06383031	-0.47937628	0.26194602	0.38967473	-0.60558089	-0.25979667	-0.53929587	-0.77250827	0.18916175	0.24438495
2127	21.26000000	-0.95029182	-0.19305600	0.03246581	-0.53404957	0.23766024	-0.74180055	-0.55443237	-0.60309200	-0.19117587	-0.77548937	-0.27356451	0.05742688	-0.22592072	0.81775119	0.04763668	-0.48967060	0.24414231	0.38302070	-0.60334087	-0.26380787	-0.53853437	-0.76788312	0.21201657	0.26602545
2128	21.27000000	-0.95427023	-0.18841805	0.03031704	-0.52732957	0.23778091	-0.74816641	-0.55487691	-0.60501628	-0.18929667	-0.77471352	-0.28024547	0.06210036	-0.23068971	0.81987176	0.03218294	-0.49905843	0.24171979	0.37870853	-0.60502307	-0.27175208	-0.54282474	-0.76972736	0.22189290	0.25134538
2129	21.28000000	-0.95273322	-0.18850232	0.03434435	-0.53083270	0.22547746	-0.74845492	-0.55098403	-0.60719739	-0.19510777	-0.77073413	-0.28795773	0.06948757	-0.22446099	0.82024995	0.01593618	-0.50055360	0.22073506	0.36948362	-0.60674786	-0.27627130	-0.54086603	-0.78105663	0.23073722	0.22419870
2130	21.29000000	-0.95064363	-0.18234212	0.03430157	-0.52716898	0.22642564	-0.75018036	-0.54273011	-0.60923032	-0.20387365	-0.76816709	-0.29892088	0.07418593	-0.22380188	0.81811052	0.00664413	-0.50886342	0.21335696	0.37005731	-0.61130542	-0.28033553	-0.54285429	-0.78447818	0.23392762	0.20284887
2131	21.30000000	-0.94849964	-0.18186803	0.03851623	-0.52713001	0.22515340	-0.75695792	-0.53787242	-0.61113717	-0.21152857	-0.76631522	-0.30119750	0.08534805	-0.22360032	0.81859157	-0.00385771	-0.51244114	0.19318529	0.35489128	-0.60471765	-0.28428935	-0.54243620	-0.78574393	0.23202019	0.19325421
2132	21.31000000	-0.95047169	-0.18007837	0.03870651	-0.52206403	0.21908244	-0.75973904	-0.53560940	-0.61718327	-0.20482166	-0.75990027	-0.30881972	0.09307340	-0.23146601	0.80980798	-0.01937404	-0.52485766	0.17239055	0.35386520	-0.61431925	-0.28834908	-0.54869972	-0.79639874	0.22783888	0.18065938
2133	21.32000000	-0.95240221	-0.17840174	0.04258740	-0.53030444	0.21303214	-0.75683199	-0.53341171	-0.61967908	-0.20739803	-0.75529885	-0.31743468	0.10028192	-0.24482672	0.81140591	-0.02204260	-0.52778546	0.16109385	0.35015955	-0.61529648	-0.29273331	-0.54716673	-0.80579490	0.22302774	0.16090722
2134	21.33000000	-0.95909121	-0.16798653	0.04449123	-0.52638739	0.20091860	-0.76505987	-0.53127997	-0.62344006	-0.19022735	-0.75084021	-0.32354934	0.10492904	-0.26030264	0.80599272	-0.03211995	-0.52706839	0.15044642	0.34596155	-0.61474836	-0.29443873	-0.54821837	-0.81031861	0.22168948	0.13502659
2135	21.34000000	-0.95789083	-0.16701167	0.04684360	-0.52571819	0.18928374	-0.76789692	-0.52864403	-0.62981299	-0.18622782	-0.74850765	-0.33161897	0.11472901	-0.27344748	0.79655868	-0.03727548	-0.53277639	0.13570576	0.34105988	-0.61849778	-0.30249745	-0.55478622	-0.81788276	0.20631947	0.09678145
2136	21.35000000	-0.95545012	-0.16739328	0.04486345	-0.52185268	0.19129210	-0.76768210	-0.52877311	-0.63412502	-0.18241532	-0.74441536	-0.34153939	0.11348641	-0.29078999	0.79630894	-0.03107289	-0.53725170	0.11982873	0.34540545	-0.62087381	-0.30690913	-0.55109462	-0.83146325	0.20813511	0.06973300
